<svg id="visual" viewBox="0 0 960 540" width="960" height="540" xmlns="http://www.w3.org/2000/svg" xmlns:xlink="http://www.w3.org/1999/xlink" version="1.1"><path d="M0 461L13.3 457.5C26.7 454 53.3 447 80 427.2C106.7 407.3 133.3 374.7 160 358C186.7 341.3 213.3 340.7 240 352.5C266.7 364.3 293.3 388.7 320 402C346.7 415.3 373.3 417.7 400 414.5C426.7 411.3 453.3 402.7 480 407.5C506.7 412.3 533.3 430.7 560 437.5C586.7 444.3 613.3 439.7 640 425.8C666.7 412 693.3 389 720 390.3C746.7 391.7 773.3 417.3 800 430.3C826.7 443.3 853.3 443.7 880 434.2C906.7 424.7 933.3 405.3 946.7 395.7L960 386L960 541L946.7 541C933.3 541 906.7 541 880 541C853.3 541 826.7 541 800 541C773.3 541 746.7 541 720 541C693.3 541 666.7 541 640 541C613.3 541 586.7 541 560 541C533.3 541 506.7 541 480 541C453.3 541 426.7 541 400 541C373.3 541 346.7 541 320 541C293.3 541 266.7 541 240 541C213.3 541 186.7 541 160 541C133.3 541 106.7 541 80 541C53.3 541 26.7 541 13.3 541L0 541Z" fill="#00BCD4" stroke-linecap="round" stroke-linejoin="miter"></path></svg>