<svg id="visual" viewBox="0 0 900 600" width="900" height="600" xmlns="http://www.w3.org/2000/svg" xmlns:xlink="http://www.w3.org/1999/xlink" version="1.1"><path d="M263 0L251.8 14.3C240.7 28.7 218.3 57.3 213.8 85.8C209.3 114.3 222.7 142.7 236.3 171.2C250 199.7 264 228.3 257.3 257C250.7 285.7 223.3 314.3 210.2 343C197 371.7 198 400.3 203 428.8C208 457.3 217 485.7 233.5 514.2C250 542.7 274 571.3 286 585.7L298 600L0 600L0 585.7C0 571.3 0 542.7 0 514.2C0 485.7 0 457.3 0 428.8C0 400.3 0 371.7 0 343C0 314.3 0 285.7 0 257C0 228.3 0 199.7 0 171.2C0 142.7 0 114.3 0 85.8C0 57.3 0 28.7 0 14.3L0 0Z" fill="#61cfe1"></path><path d="M169 0L176 14.3C183 28.7 197 57.3 203.2 85.8C209.3 114.3 207.7 142.7 207.7 171.2C207.7 199.7 209.3 228.3 201.2 257C193 285.7 175 314.3 177.8 343C180.7 371.7 204.3 400.3 215.2 428.8C226 457.3 224 485.7 225.3 514.2C226.7 542.7 231.3 571.3 233.7 585.7L236 600L0 600L0 585.7C0 571.3 0 542.7 0 514.2C0 485.7 0 457.3 0 428.8C0 400.3 0 371.7 0 343C0 314.3 0 285.7 0 257C0 228.3 0 199.7 0 171.2C0 142.7 0 114.3 0 85.8C0 57.3 0 28.7 0 14.3L0 0Z" fill="#42c5da"></path><path d="M156 0L162.3 14.3C168.7 28.7 181.3 57.3 185.8 85.8C190.3 114.3 186.7 142.7 186.8 171.2C187 199.7 191 228.3 182.2 257C173.3 285.7 151.7 314.3 139.5 343C127.3 371.7 124.7 400.3 133.8 428.8C143 457.3 164 485.7 176.2 514.2C188.3 542.7 191.7 571.3 193.3 585.7L195 600L0 600L0 585.7C0 571.3 0 542.7 0 514.2C0 485.7 0 457.3 0 428.8C0 400.3 0 371.7 0 343C0 314.3 0 285.7 0 257C0 228.3 0 199.7 0 171.2C0 142.7 0 114.3 0 85.8C0 57.3 0 28.7 0 14.3L0 0Z" fill="#00bbd4"></path><path d="M102 0L96.8 14.3C91.7 28.7 81.3 57.3 76.5 85.8C71.7 114.3 72.3 142.7 74.8 171.2C77.3 199.7 81.7 228.3 84.8 257C88 285.7 90 314.3 89.2 343C88.3 371.7 84.7 400.3 84.3 428.8C84 457.3 87 485.7 93.3 514.2C99.7 542.7 109.3 571.3 114.2 585.7L119 600L0 600L0 585.7C0 571.3 0 542.7 0 514.2C0 485.7 0 457.3 0 428.8C0 400.3 0 371.7 0 343C0 314.3 0 285.7 0 257C0 228.3 0 199.7 0 171.2C0 142.7 0 114.3 0 85.8C0 57.3 0 28.7 0 14.3L0 0Z" fill="#00a2b6"></path><path d="M89 0L85.7 14.3C82.3 28.7 75.7 57.3 72.7 85.8C69.7 114.3 70.3 142.7 68.3 171.2C66.3 199.7 61.7 228.3 55.2 257C48.7 285.7 40.3 314.3 42.5 343C44.7 371.7 57.3 400.3 65.8 428.8C74.3 457.3 78.7 485.7 72.7 514.2C66.7 542.7 50.3 571.3 42.2 585.7L34 600L0 600L0 585.7C0 571.3 0 542.7 0 514.2C0 485.7 0 457.3 0 428.8C0 400.3 0 371.7 0 343C0 314.3 0 285.7 0 257C0 228.3 0 199.7 0 171.2C0 142.7 0 114.3 0 85.8C0 57.3 0 28.7 0 14.3L0 0Z" fill="#00899a"></path></svg>