<svg id="visual" viewBox="0 0 960 540" width="960" height="540" xmlns="http://www.w3.org/2000/svg" xmlns:xlink="http://www.w3.org/1999/xlink" version="1.1"><path d="M667 540L671.8 528.8C676.7 517.7 686.3 495.3 686.8 472.8C687.3 450.3 678.7 427.7 676.5 405.2C674.3 382.7 678.7 360.3 688.3 337.8C698 315.3 713 292.7 722 270.2C731 247.7 734 225.3 725.2 202.8C716.3 180.3 695.7 157.7 695.5 135.2C695.3 112.7 715.7 90.3 722.8 67.8C730 45.3 724 22.7 721 11.3L718 0L960 0L960 11.3C960 22.7 960 45.3 960 67.8C960 90.3 960 112.7 960 135.2C960 157.7 960 180.3 960 202.8C960 225.3 960 247.7 960 270.2C960 292.7 960 315.3 960 337.8C960 360.3 960 382.7 960 405.2C960 427.7 960 450.3 960 472.8C960 495.3 960 517.7 960 528.8L960 540Z" fill="#61d0e2"></path><path d="M741 540L742.8 528.8C744.7 517.7 748.3 495.3 753.7 472.8C759 450.3 766 427.7 766 405.2C766 382.7 759 360.3 751.7 337.8C744.3 315.3 736.7 292.7 735.2 270.2C733.7 247.7 738.3 225.3 741.8 202.8C745.3 180.3 747.7 157.7 750.3 135.2C753 112.7 756 90.3 759.7 67.8C763.3 45.3 767.7 22.7 769.8 11.3L772 0L960 0L960 11.3C960 22.7 960 45.3 960 67.8C960 90.3 960 112.7 960 135.2C960 157.7 960 180.3 960 202.8C960 225.3 960 247.7 960 270.2C960 292.7 960 315.3 960 337.8C960 360.3 960 382.7 960 405.2C960 427.7 960 450.3 960 472.8C960 495.3 960 517.7 960 528.8L960 540Z" fill="#42c6db"></path><path d="M819 540L815.8 528.8C812.7 517.7 806.3 495.3 806.8 472.8C807.3 450.3 814.7 427.7 816.3 405.2C818 382.7 814 360.3 808.2 337.8C802.3 315.3 794.7 292.7 794.2 270.2C793.7 247.7 800.3 225.3 798.2 202.8C796 180.3 785 157.7 786 135.2C787 112.7 800 90.3 806 67.8C812 45.3 811 22.7 810.5 11.3L810 0L960 0L960 11.3C960 22.7 960 45.3 960 67.8C960 90.3 960 112.7 960 135.2C960 157.7 960 180.3 960 202.8C960 225.3 960 247.7 960 270.2C960 292.7 960 315.3 960 337.8C960 360.3 960 382.7 960 405.2C960 427.7 960 450.3 960 472.8C960 495.3 960 517.7 960 528.8L960 540Z" fill="#00bcd4"></path><path d="M842 540L843 528.8C844 517.7 846 495.3 850.7 472.8C855.3 450.3 862.7 427.7 865.2 405.2C867.7 382.7 865.3 360.3 859 337.8C852.7 315.3 842.3 292.7 840.8 270.2C839.3 247.7 846.7 225.3 852.2 202.8C857.7 180.3 861.3 157.7 862.7 135.2C864 112.7 863 90.3 856.3 67.8C849.7 45.3 837.3 22.7 831.2 11.3L825 0L960 0L960 11.3C960 22.7 960 45.3 960 67.8C960 90.3 960 112.7 960 135.2C960 157.7 960 180.3 960 202.8C960 225.3 960 247.7 960 270.2C960 292.7 960 315.3 960 337.8C960 360.3 960 382.7 960 405.2C960 427.7 960 450.3 960 472.8C960 495.3 960 517.7 960 528.8L960 540Z" fill="#00a3b7"></path><path d="M900 540L897.5 528.8C895 517.7 890 495.3 890.8 472.8C891.7 450.3 898.3 427.7 902.7 405.2C907 382.7 909 360.3 906.8 337.8C904.7 315.3 898.3 292.7 894.5 270.2C890.7 247.7 889.3 225.3 888.3 202.8C887.3 180.3 886.7 157.7 890.3 135.2C894 112.7 902 90.3 903.7 67.8C905.3 45.3 900.7 22.7 898.3 11.3L896 0L960 0L960 11.3C960 22.7 960 45.3 960 67.8C960 90.3 960 112.7 960 135.2C960 157.7 960 180.3 960 202.8C960 225.3 960 247.7 960 270.2C960 292.7 960 315.3 960 337.8C960 360.3 960 382.7 960 405.2C960 427.7 960 450.3 960 472.8C960 495.3 960 517.7 960 528.8L960 540Z" fill="#008a9b"></path></svg>